<svg xmlns="http://www.w3.org/2000/svg" viewBox="0 0 874.15 517.52"><defs><style>.cls-1{fill:#576b32;}.cls-2{fill:#586c32;}</style></defs><title>dmc-simplified</title><g id="Layer_2" data-name="Layer 2"><g id="Layer_1-2" data-name="Layer 1"><path class="cls-1" d="M163.06,343.25c0-1.38,1.18-2.22,2.65-2.22,3.53,0,6.18-1.66,6.47-5l.3-100.13c-.3-3.32-2.95-5-6.77-5a2.26,2.26,0,0,1-2.36-2.22,2.32,2.32,0,0,1,2.36-2.49h40a2.25,2.25,0,0,1,2.35,2.22,2.32,2.32,0,0,1-2.35,2.49c-3.53,0-4.42,2.5-3.53,5.27l17.36,55.75,16.19-53.53c.88-3,2.36-7.49-1.77-7.49a2.37,2.37,0,1,1,0-4.71h35.62a2.25,2.25,0,0,1,2.35,2.22,2.32,2.32,0,0,1-2.35,2.49c-3.53,0-6.77,2.77-6.77,6.1v97.63c0,4.16,2.06,6.38,6.77,6.38a2.11,2.11,0,0,1,2.35,2.22,2.32,2.32,0,0,1-2.35,2.5H230.17a2.51,2.51,0,0,1-2.36-2.5,2.27,2.27,0,0,1,2.36-2.22c5,0,6.77-2.49,6.77-6.65V272l-17.66,58.8c-1.77,6.38-9.72,6.38-12.07.56l-23.55-64.91L183.37,336c.29,3.33,2.94,5,6.77,5a2.11,2.11,0,0,1,2.35,2.22,2.32,2.32,0,0,1-2.35,2.5H165.71A2.57,2.57,0,0,1,163.06,343.25Zm52.39-39.66-20.9-66.29H191.9l22.08,71Zm38.26,30v1.94h3V237.3h-3Z"/><path class="cls-1" d="M360,332.71c-12.66,21.36-55,21.36-67.41,0-13.24-22.19-13.24-71.28,0-93.47,12.37-21.35,54.75-21.35,67.41,0C372.92,261.43,372.92,310.52,360,332.71Zm-53.87-5.55c-4.71-13.59-5-64.34-.59-81.26a12.23,12.23,0,0,0-1.47,1.94c-6.77,10.82-7.36,65.18,0,76.55C304.93,325.5,305.51,326.33,306.1,327.16Zm31.79-87.36c-7.06-11.93-16.19-11.93-23.55,0-7.35,12.48-7.35,79.88,0,92.36,7.36,11.92,16.49,11.92,23.55,0C345.25,319.68,345.25,252.28,337.89,239.8Zm15.89,1.38a4.78,4.78,0,0,0-1.17-1.38c10.3,25.24,9.71,71.28-1.47,94.58a40.31,40.31,0,0,0,2.64-3.61C366.74,309.41,366.74,262.54,353.78,241.18Z"/><path class="cls-1" d="M463.86,228.7c0,1.39-1.17,2.22-2.65,2.22-5.88,0-6.18,3.05-7.06,6.94-8.24,34.11-15.89,68.23-25.31,101.79-2.95,10.26-18,9.15-20.31,0-8.83-33.84-17.37-68-25.9-101.79-1.18-3.89-2.06-6.94-7.36-6.94a2.26,2.26,0,0,1-2.36-2.22,2.51,2.51,0,0,1,2.36-2.49h39.44a2.32,2.32,0,0,1,2.35,2.49,2.1,2.1,0,0,1-2.35,2.22c-4.71,0-7.36,2.5-6.48,6.66,5.89,23.3,11.78,46.59,17.66,69.62,5.6-23.3,11.48-46.6,17.08-69.9.88-4.16-2.36-6.38-6.48-6.38-1.47,0-2.65-.83-2.65-2.22a2.57,2.57,0,0,1,2.65-2.49h24.72A2.56,2.56,0,0,1,463.86,228.7ZM420.3,316.07l-19.72-79h-2.94L419.42,325Z"/><path class="cls-1" d="M521.55,228.7a2.54,2.54,0,0,1-2.65,2.22c-3.24,0-6.48,2.77-6.48,6.1v97.63c0,4.16,2.07,6.38,6.48,6.38a2.38,2.38,0,1,1,0,4.72H479.75a2.38,2.38,0,1,1,0-4.72c5,0,6.77-2.49,6.77-6.65V237.3c0-4.16-2.35-6.38-6.77-6.38a2.37,2.37,0,1,1,0-4.71H518.9A2.57,2.57,0,0,1,521.55,228.7ZM503,237v97.91l2.94.28V237Z"/><path class="cls-1" d="M563.34,341a2.38,2.38,0,1,1,0,4.72H538.91a2.38,2.38,0,1,1,0-4.72c3.53,0,6.18-1.66,6.47-5l.3-99.85c-.3-3.6-2.95-5.27-6.77-5.27a2.26,2.26,0,0,1-2.36-2.22,2.32,2.32,0,0,1,2.36-2.49h38a2.37,2.37,0,1,1,0,4.71c-3.83,0-3.24,2.5-2.36,5.83l21.78,72.39V236.19c-.29-3.6-2.94-5.27-6.77-5.27a2.1,2.1,0,0,1-2.35-2.22,2.32,2.32,0,0,1,2.35-2.49H614a2.56,2.56,0,0,1,2.65,2.49c0,1.39-1.17,2.22-2.65,2.22-3.53,0-6.18,1.67-6.47,4.72l-.3,100.4c.3,3.33,2.95,5,6.77,5a2.54,2.54,0,0,1,2.65,2.22,2.56,2.56,0,0,1-2.65,2.5H575.7a2.5,2.5,0,0,1-2.35-2.5A2.46,2.46,0,0,1,575.7,341c3.53,0,3.53-1.94,2.94-4.71l-21.78-72.67-.29,72.11C556.86,339.37,559.51,341,563.34,341Zm28.55-7.49.59,1.94h2.94l-28-98.18h-2.94Z"/><path class="cls-1" d="M711.09,296.1a2.57,2.57,0,0,1-2.65,2.5c-3.53,0-6.77,2.49-6.77,5.82V346c0,7.22-18.83,3.89-18.83-8.59-4.71,13.31-38.27,12.76-47.39-3.05-11.19-18.59-11.48-53.26-8-74.89,3-16.92,10-32.45,30.91-35,11.18-1.11,23,1.67,30,8.32,3.24,1.11,3.24-2.21,3.53-5.82a2.57,2.57,0,0,1,2.65-2.5A2.5,2.5,0,0,1,697,227v26.62c-.88,4.16-7.94,4.44-8.53-.83v-1.11c-1.18-12.75-13.54-23.57-24.14-17.47-7.35,4.16-10,14.42-11.18,24.13-2.06,16.09-2.36,61,4.41,72.11,8.83,14.42,20.31,6.38,24.43-7.21,1.77-5.55,4.42-23.85-5.29-23.85,0,.83.29,1.38.29,2.22,0,4.71-3.83,8.32-8.83,8.32a8.36,8.36,0,0,1-8.54-8.32c0-6.1,5.3-8,10.6-8h38.26A2.57,2.57,0,0,1,711.09,296.1Zm-64.46-41.6a102.69,102.69,0,0,1,2.65-14.15,50.58,50.58,0,0,0-5.88,18c-1.77,16.09-1.77,61,5,72.11.29.28.59.84.88,1.11C644.28,314.13,644.87,270.86,646.63,254.5ZM695.79,305l-2.95.27V333l2.95-.83Z"/><path class="cls-1" d="M101.13,33.32c.69,9.46-.37,191.65-1.17,201.73C98,254.27,85.62,272,70.43,276,50,281.12,23.48,288.54,3.3,294.75c-1.83.56-3.3-1-3.3-3.45,0-2,1.47-4.4,3.3-4.95,6.25-1.85,8.46-6.88,8.47-14.22Q11.88,146.6,12,21.05V19.58C12,12.24,9,8.35,3.38,8.39,1.5,8.41,0,6.44,0,4.46,0,2,1.5,0,3.38,0h68.3C86.69.08,99.36,15,101.13,33.32ZM34.47,22.5q-.28,119.19-.58,238.39c0,1.76,0,3.52,0,5.27l3.69-1,.65-242.78ZM44.22,264c-.06,17.09,23.24,10.22,25.27-25.19.41-8.42,1.23-193,.89-200.82C68.67,2,45,3.7,45,18.48ZM87.7,233.5a59.69,59.69,0,0,1-6.42,21.93,50.52,50.52,0,0,0,10.16-26.78c.8-9.24,1.73-178.3,1-186.91-.69-9.5-4.4-18-10-23.89,3.35,5.44,5.56,12.67,6.26,20.38C89.44,46.88,88.49,223.77,87.7,233.5Z"/><path class="cls-1" d="M212.11,178.82c-16.45,33.21-70.42,42.74-85.85,11.39-16.57-32.49-16.12-112.74,1-148.46,16-34.6,70-33.82,85.91-2.5C229.43,72.06,228.91,143.82,212.11,178.82Zm-68.59.12c-5.83-20.4-5.66-100.58.15-127.3a19.52,19.52,0,0,0-1.89,3.13C133,72,131.71,158.46,140.94,175,142.05,176.54,142.79,177.74,143.52,178.94ZM185,40.82c-8.87-17.88-20.51-17.94-30,.9-9.52,19.58-10.26,125.58-1,143.55,9.23,17.22,20.85,15.28,30-4C193.47,161.07,194.24,59.64,185,40.82Zm20.25,1.54a6.87,6.87,0,0,0-1.49-2c12.85,37.62,11.59,105.53-3,142.29,1.14-1.8,2.28-3.6,3.42-5.81C221,142.85,221.53,74,205.26,42.36Z"/><path class="cls-1" d="M350.65,116.79a3.6,3.6,0,0,1-3.41,3.61c-4.53.14-8.69,3.8-8.71,8.49l-.27,58.64c-.05,10.11-24.23,7-24.13-10.76-6.15,19-49.21,22.15-60.71.31-14.12-25.76-14.11-77-9.37-108.85,3.94-25,13.11-47.84,39.79-51.57,14.27-1.7,29.27,2.2,38.23,11.54,4.13,1.53,4.15-3.18,4.55-8.28a3.49,3.49,0,0,1,3.4-3.55,3.36,3.36,0,0,1,3,3.51q-.09,18.21-.17,36.41c0,.4,0,.79,0,1.18-1.16,5.89-10.19,6.47-10.9-1v-.78c0-.4,0-.4,0-.79-1.42-18-17.11-33.27-30.68-24.4-9.43,6.08-12.91,21-14.5,35-2.78,23.26-3.6,88.3,5,103.58,11.19,19.85,26,7.19,31.38-12.35,2.31-8,5.84-34.14-6.6-33.58,0,1.18.37,2,.36,3.14a12.25,12.25,0,0,1-11.38,12.46c-6,.35-10.9-4.53-10.85-11.32.05-8.77,6.85-11.9,13.63-12.21,16.2-.75,32.78-1.38,49-1.86A3.31,3.31,0,0,1,350.65,116.79ZM268.53,60.15a165.8,165.8,0,0,1,3.52-20.55c-3.81,7.29-6.51,17-7.7,26.31-2.41,23.4-2.87,88.79,5.69,104.1.38.37.75,1.14,1.13,1.52C264.92,146.79,266.11,83.89,268.53,60.15ZM331,130l-3.78.54v2.75L327,169.74l3.78-1.38Q330.88,149.16,331,130Z"/><path class="cls-1" d="M526.39,22.14c0,1.94-1.12,3.5-3,3.48-7.52,0-7.88,4.23-9.36,9.28-8.48,39.27-26.37,120.55-32,141.63-3.37,13.8-22.7,11.9-26.11-.43Q446.6,136.5,437.36,97c-7.54,33.13-15.13,66.7-18.55,79.08-3.79,13.87-22.73,12.68-26.11.42Q376.2,106,359.93,34.9c-1.11-5.44-2.22-9.32-9-9.28a3.38,3.38,0,0,1-3.36-3.48A3.46,3.46,0,0,1,351,18.61c16.9-.08,33.43-.14,49.95-.17a3.48,3.48,0,0,1,0,7c-6,0-9.4,3.51-7.91,9.3Q404,82.95,415.08,131q12-51.78,23.78-103.37l.75-3.46c.75-3.86,4.51-6.17,8.64-5.4,4.51,1.16,4.89,4.64,6,8.49q11.88,51.87,23.88,104Q489,82.76,499.75,34c1.49-5.81-3-8.55-7.91-8.56a3.45,3.45,0,0,1-3.39-3.5,3.39,3.39,0,0,1,3.37-3.47c10.52,0,20.66.07,31.55.12C525.25,18.62,526.38,20.18,526.39,22.14ZM408.26,143.43q-12.58-54.83-25-109.85l-3.76,0q13.74,61.31,27.64,122.19Q407.68,149.61,408.26,143.43Zm63.88,9.35Q460.34,102,448.65,51.56h-3.77q12.83,56.67,25.77,113.56Q471.4,158.95,472.14,152.78Z"/><path class="cls-1" d="M626.17,175.15c-15.94,29.5-70.37,24.34-86.4-6.19-17.15-32.15-17.37-100.71-.61-131.88,15.65-29.85,69.66-30.27,86,1.36C642,71.19,642.51,144.35,626.17,175.15ZM557.11,162c-6.15-19.64-6.88-91.39-1.37-115.32a17.16,17.16,0,0,0-1.86,2.73c-8.56,15.23-9,91.87.57,108.51C555.59,159.59,556.35,160.82,557.11,162ZM597,38.71c-9.13-17.36-20.76-17.33-30.06-.48-9.29,17.69-8.8,113.13.75,131.54,9.53,17.58,21.25,18.63,30.18,2.15C607.21,154.74,606.54,56.82,597,38.71Zm20.3,2.4a7.42,7.42,0,0,0-1.52-2c13.4,37,13.16,105-.92,137.49a48.82,48.82,0,0,0,3.35-5C634.6,142.05,634.07,72.53,617.33,41.11Z"/><path class="cls-1" d="M752.19,190.88c-15.8,31.37-69.76,21.7-85.83-11.58-17.17-35.17-17.7-107-1.06-140C680.82,8,734.87,7.16,751.22,41.9,767.94,77.74,768.38,158.24,752.19,190.88Zm-68.61-17.95c-6.16-21.32-7.12-97.63-1.68-123.08A16.92,16.92,0,0,0,680,52.73c-8.51,16.13-8.64,97.42.88,115.71C682.06,170.24,682.82,171.59,683.58,172.93ZM723.1,41.84C714,23,702.33,23,693.09,40.93c-9.24,18.87-8.47,120.56,1.06,140.86,9.51,19.37,21.13,21.35,30,4C733.35,167.82,732.61,61.49,723.1,41.84Zm20.26,2.86a8.1,8.1,0,0,0-1.51-2.24c13.39,40.34,13.09,114.82-.86,149.32a52.09,52.09,0,0,0,3.33-5.19C760.53,155.38,760.09,79,743.36,44.7Z"/><path class="cls-1" d="M873.59,36.64c.75,10.4.74,211.15,0,221.82-1.84,20.4-13.94,32.93-29,28.53-20.26-5.82-46.92-12.75-67.38-17.51-1.86-.44-3.36-2.59-3.37-4.84a2.74,2.74,0,0,1,3.32-2.84c6.33,1.46,8.53-2.1,8.49-8.93Q785,136.21,784.38,19.56c0-.46,0-.91,0-1.37,0-6.83-3-10.48-8.68-10.52a3.66,3.66,0,0,1-3.4-3.62c0-2.25,1.48-4,3.36-4h68.29C859-.09,871.73,16.17,873.59,36.64Zm-66.7-14.83,1,231.12c0,1.7,0,3.41,0,5.11l3.71.89q-.5-118.52-1-237ZM818.27,261c.08,16.73,23.33,22.85,25.1-13.25.35-8.54-.07-200.24-.46-208.4C841,1.74,817.31,3.84,817.37,18.28Zm43.18-10.18c-.73,8.13-2.94,15.36-6.24,20.28,5.51-4.8,9.19-13.13,9.92-23.75.73-9.61.62-192.89-.14-202.22-.75-10.35-4.51-19.8-10.14-26.21,3.39,5.89,5.64,13.78,6.4,22.13C862,50.37,862.17,240.79,861.45,250.85Z"/><path class="cls-1" d="M242.39,492.83a22.86,22.86,0,0,1-6.59-9.13,39.5,39.5,0,0,1-2.55-12.52A67.59,67.59,0,0,1,236,450a117.67,117.67,0,0,1,16.47-34.93,133.23,133.23,0,0,1,37.13-35.22,68.29,68.29,0,0,1,11.68-5.8A33.31,33.31,0,0,1,314.7,372a12.89,12.89,0,0,1,7.64,2.6,14.08,14.08,0,0,1,5.84,10.52,29.72,29.72,0,0,1-1.5,13.55,39.63,39.63,0,0,1-9.88,15.47c-5.24,4.53-11.08,7.14-17.82,6.86a3,3,0,0,1-2.24-1.37,2.36,2.36,0,0,1,.45-2.74,6.45,6.45,0,0,1,1.49-.85c5.39-1.45,9.43-4.8,13-9.26a33.73,33.73,0,0,0,7-15.83,11.33,11.33,0,0,0-1.94-8.27,7.41,7.41,0,0,0-1.8-2,13,13,0,0,0-9.73-2.07,34.74,34.74,0,0,0-15,7,64.88,64.88,0,0,0-5.84,5.13,150,150,0,0,0-34.29,52,140.93,140.93,0,0,0-4.79,15.92,79.76,79.76,0,0,0-1.79,15.1c.15,2.09.3,4.17.44,6.26a18.42,18.42,0,0,0,1.65,5.6,11.4,11.4,0,0,0,13.63,6.93,42.56,42.56,0,0,0,9.58-3.37,99.83,99.83,0,0,0,11.23-6.65,125.43,125.43,0,0,0,28.59-28.12c1.2-1.65,2.4-3.13,3.6-4.62.74-1.15,2.24-.56,2.69.87a1.09,1.09,0,0,1,.15.95,5.82,5.82,0,0,1-.75,1.79,123.44,123.44,0,0,1-24.25,28.55,102.47,102.47,0,0,1-10.63,7.81A63.65,63.65,0,0,1,266,496.09a32.62,32.62,0,0,1-16.32.54A14.82,14.82,0,0,1,242.39,492.83Z"/><path class="cls-1" d="M308.78,461.81c-.3-1.59-.15-3.2-.3-3.36a42.09,42.09,0,0,1,2.7-14.86,73.85,73.85,0,0,1,10.48-19.81,47.86,47.86,0,0,1,9.43-9.69,17.45,17.45,0,0,1,6.59-3.17,7.25,7.25,0,0,1,9.13,5.69c1.65,9.88-1.35,20.45-6.29,29.66A67.39,67.39,0,0,1,329,462C323.45,467.86,311,473.94,308.78,461.81Zm17.52-3.7a115.57,115.57,0,0,0,9-13.38c4.34-7.89,7.64-16.87,6.74-24.85-.15-1.6-1.2-3-2.84-2.6a7.48,7.48,0,0,0-2.55,1.07c-5.39,3.76-8.23,11.26-11.38,17-3.44,6.56-6.74,13.42-7.78,20.84-.15,1.77-.3,3.7.74,5.11C320.61,464.75,324.65,460.1,326.3,458.11Z"/><path class="cls-1" d="M338.13,464.35l.45-2c6.88-16.35,13.62-32.71,20.36-49.09a24.54,24.54,0,0,1,1.8-3.46c.3-.82,2.54-1.57,3.29-1.29a7.48,7.48,0,0,1,3.14,1.77c1.35,1.37,2.7,1.15,4.2.27a26.63,26.63,0,0,1,6-2.88,7.44,7.44,0,0,1,7.94,3.27c.75,1.24,1.35,2.82,2.09,4.22.3.79,1.5.88,2.25.2,1.95-1.87,3.74-3.57,5.69-5.29a20.83,20.83,0,0,1,7.64-3.79c2.54-.94,6.43.92,7.78,3.42a18.82,18.82,0,0,1,1.65,8.25,45.09,45.09,0,0,1-2.25,11.84c-.9,2.78-1.94,5.57-3,8.36a63,63,0,0,0-2.85,9.46,19,19,0,0,0-.15,8.68,3.27,3.27,0,0,0,2.1,1.49,6.67,6.67,0,0,0,1.8-.58,37.58,37.58,0,0,0,3.89-2.79,56.71,56.71,0,0,0,9-11.59c1.2-2.31,2.4-4.63,3.74-6.95a5.17,5.17,0,0,1,1.2-1.35,1.52,1.52,0,0,1,1.8-.27,1.91,1.91,0,0,1,.75,1.57,2.22,2.22,0,0,1-.15,1,63.06,63.06,0,0,1-15,21.72,22.67,22.67,0,0,1-7.94,4.94c-3.14,1-6.14.66-8.53-1.62a6,6,0,0,1-2.1-3.09,18.65,18.65,0,0,1-.6-5.75,43.73,43.73,0,0,1,1.95-10.7c1.2-3.11,2.24-6.22,3.44-9.17a70.53,70.53,0,0,0,3.75-14.34,20.7,20.7,0,0,0,0-3.05,2.81,2.81,0,0,0-4.5-2.48,18.82,18.82,0,0,0-3.59,3.25,58.49,58.49,0,0,0-7.79,11.18,102.38,102.38,0,0,0-5.09,10.7c-2.24,5.26-4.34,10.34-6.43,15.59-.75,1.81-1.5,3.61-2.4,5.42a12.94,12.94,0,0,1-6.14,5.93,5.39,5.39,0,0,1-3.59.5c-.75-.12-1.65-1.2-1.35-2,.6-1.79,1.2-3.75,1.95-5.55,3-7.37,6-14.59,9.13-22a72.61,72.61,0,0,0,4.19-14,13.25,13.25,0,0,0,.15-5.95,2.75,2.75,0,0,0-3.44-2.07,21.85,21.85,0,0,0-2.4,1.57A44,44,0,0,0,361.78,430c-1.19,2.63-2.39,5.41-3.44,8.19-2.7,6.39-5.24,12.77-7.94,19.16-.59,1.47-1.34,2.95-2.09,4.43a11.79,11.79,0,0,1-6.74,5.12,3.37,3.37,0,0,1-1.8.08A1.93,1.93,0,0,1,338.13,464.35Z"/><path class="cls-1" d="M395.17,504.67a17.71,17.71,0,0,1,1.05-3.75c5.84-14,11.53-27.93,17.37-41.9q10.1-24.64,20.21-49.3a17,17,0,0,1,2.24-4.3,3.54,3.54,0,0,1,3.3-1.15,12.12,12.12,0,0,1,3.14,1.74,2.37,2.37,0,0,0,3.29.45,42,42,0,0,1,5.84-2.74,7.22,7.22,0,0,1,9.59,6l.45,2.86c0,1,0,1.93,0,4.34a40,40,0,0,1-2.1,10.23A74.74,74.74,0,0,1,446.07,452c-1.64,1.86-3.59,3.74-5.39,5.44a21.07,21.07,0,0,1-7.33,4.44,7,7,0,0,1-5.39-.18c-1.35-.56-2.7-1.29-4-1.85a1.09,1.09,0,0,0-.74.52c-.6,1-1.35,2.17-1.95,3.32-3.89,9.37-7.78,18.9-11.53,28.26-1.05,2.42-2.09,4.83-3.14,7.24a15.15,15.15,0,0,1-1.5,2.65,10.65,10.65,0,0,1-7.63,5.08C396.37,507.17,395,505.8,395.17,504.67Zm38.48-50.16a24.21,24.21,0,0,0,5.24-5.76A80.64,80.64,0,0,0,451,424.14a41.45,41.45,0,0,0,1.65-9.56,10.43,10.43,0,0,1-.15-2.08c-.15-.31-.15-.63-.3-.94,0-.65-1.34-1.69-1.94-1.5-.9.21-1.95.27-2.55.95a34.1,34.1,0,0,0-10,12.93c-3.14,6.92-5.84,14-8.68,21a16.34,16.34,0,0,0-.6,9.67c.3,1.1,1.94,2,2.84,1.28A7.81,7.81,0,0,0,433.65,454.51Z"/><path class="cls-1" d="M459.7,454.14c-.3-1.9-.45-3.82-.6-4.94a41.6,41.6,0,0,1,1.65-10.52,72.91,72.91,0,0,1,12.12-24.6,46.93,46.93,0,0,1,9.59-9.51,21,21,0,0,1,5.09-2.36,7.91,7.91,0,0,1,7.78,1.19,9.2,9.2,0,0,0,1.35,1.21,1.84,1.84,0,0,0,2.39-.61c.45-.5.75-1.16,1.2-1.66a4.31,4.31,0,0,1,5.84.34,7,7,0,0,1,.75,1.57,5.66,5.66,0,0,1,0,3.85,27.43,27.43,0,0,1-1.2,3.75l-7.18,17.38c-1.35,3.28-2.55,6.72-3.6,10.14a30.9,30.9,0,0,0-1.2,9.69A8.26,8.26,0,0,0,494,451a2.54,2.54,0,0,0,3.45,1.75,21.93,21.93,0,0,0,3.89-2.77,53,53,0,0,0,10-13c1.35-2.31,2.25-4.76,3.89-6.77.45-.5,1.2-.86,1.65-.56.45.14.75.93,1.05,1.39a1.83,1.83,0,0,1,.15,1,2.51,2.51,0,0,1-.3,1,65.07,65.07,0,0,1-12.28,18.58,33.68,33.68,0,0,1-8.38,6.37c-.6.19-1.05.54-1.65.73-4.34,1.35-7.63.57-10-4.12-.45-1.1-.45-2.54-1.35-3.46a1.3,1.3,0,0,0-1.64-.23c-1.5,1.21-2.85,2.56-4.35,3.93a26.77,26.77,0,0,1-7,4.72,15.18,15.18,0,0,1-3.6,1C463,460.86,460.15,457.17,459.7,454.14Zm17.22-4.65A80.31,80.31,0,0,0,492,418.82a21.21,21.21,0,0,0,.45-8.69,2.49,2.49,0,0,0-2.7-1.95,7.49,7.49,0,0,0-2.54,1.1,36.16,36.16,0,0,0-6.29,7.25,80.15,80.15,0,0,0-11.83,25.85,37.46,37.46,0,0,0-.9,6v2.73a2.09,2.09,0,0,1,.15.95c.3,1.59,2.25,2.6,3.44,1.89A23.89,23.89,0,0,0,476.92,449.49Z"/><path class="cls-1" d="M503.56,455.93,504,454l21.11-51.1.9-1.65a3.94,3.94,0,0,1,3.89-1.78c1.65.56,2.55,1.65,3.75,2.72a1.93,1.93,0,0,0,2.39.53c.9-.52,1.65-1.19,2.4-1.55,1.5-.7,2.84-1.24,4.34-1.79a7.24,7.24,0,0,1,9.73,5.71,39,39,0,0,1,.6,5.11,42.92,42.92,0,0,1-1.64,11.3c-1.05,3.25-2.25,6.19-3.45,9.29-1.65,4.72-3.14,9.27-3.29,14.42a14.36,14.36,0,0,0,.45,3.67,2.64,2.64,0,0,0,3,1.48A16.28,16.28,0,0,0,553,447.1a47,47,0,0,0,8.84-11.4c1.49-2.46,3-5.08,4.34-7.54a1.67,1.67,0,0,1,2.39-.56,1.54,1.54,0,0,1,.6,1.75v1A61,61,0,0,1,554,451.56a25,25,0,0,1-6.29,4.1,10.82,10.82,0,0,1-6.29.74,7.17,7.17,0,0,1-5.09-3.48,12.09,12.09,0,0,1-1.49-5.55,27.82,27.82,0,0,1,.3-5,66.45,66.45,0,0,1,4.19-14.15c1.34-3.27,2.54-6.69,3.59-10.1a35.13,35.13,0,0,0,1-8.87,8.43,8.43,0,0,0-.3-1.92,2.17,2.17,0,0,0-2.7-1.65,5,5,0,0,0-2.54,1.23,35.48,35.48,0,0,0-6.29,7.18,73.37,73.37,0,0,0-7.93,14.65q-4.05,9.57-8.09,19.16a24,24,0,0,1-2.1,4.44,10.58,10.58,0,0,1-7.33,5.66,6.81,6.81,0,0,1-1.8.09A2.31,2.31,0,0,1,503.56,455.93Z"/><path class="cls-1" d="M600.73,513.88a22.19,22.19,0,0,1-15.57-6.69,38,38,0,0,1-7.19-9.91c-.6-1.11-1.05-2.38-1.64-3.48a2.24,2.24,0,0,0-3-1.19l-6.58,3.59a239.15,239.15,0,0,1-25.31,12.68,118.18,118.18,0,0,1-24.85,7.39,63.9,63.9,0,0,1-26.35-.26,25.36,25.36,0,0,1-9.88-4.28,16,16,0,0,1-5.24-7.57,12.81,12.81,0,0,1-.45-6.72A31.7,31.7,0,0,1,485,480a6.35,6.35,0,0,1,3.14-1.77c.75-.2,2.1,1,1.8,1.67a9.3,9.3,0,0,1-.45,1.95,59.76,59.76,0,0,0-3.89,9,20.47,20.47,0,0,0-.6,2.92c-.9,5.66.75,10.23,4.79,13.7a20.8,20.8,0,0,0,9,4.18c3,.49,6,.82,9,1.15a23.55,23.55,0,0,0,4.65-.39,109.5,109.5,0,0,0,28.44-7.9,226,226,0,0,0,30.85-16.08,15.2,15.2,0,0,0,1.49-1.17,4,4,0,0,0,1.35-2.45,9.86,9.86,0,0,0,.15-2.09c-.15-6.9,1.35-13.53,3.29-20.17a33.77,33.77,0,0,0,1.95-6.64,1.57,1.57,0,0,0-1.65-1.71l-2.69.56a21,21,0,0,1-5.39.81c-4.49.15-7.64-3.59-8.09-7.58a32.51,32.51,0,0,1,1-13.68,55.12,55.12,0,0,1,2.1-6.5l11.67-28a3.41,3.41,0,0,1,3-2.18c1.65-.37,3.74,1.34,4.19,2.93a6.74,6.74,0,0,1,.15,3.85c-.45,1.46-.9,3.08-1.5,4.54l-7.18,17.22q-2,5.12-3.6,10.23a29.2,29.2,0,0,0-1,8.7,8.29,8.29,0,0,0,.15,1.92c.15,1.6,1.94,2.82,3.29,2.14a11.06,11.06,0,0,0,4-2.53,54.38,54.38,0,0,0,8.09-9.54,70.24,70.24,0,0,0,6.74-12.85c3-7.29,6-14.42,9.13-21.7.6-1.46,1.35-2.91,2.09-4.37a3.1,3.1,0,0,1,3.3-1,6.93,6.93,0,0,1,2.39,1.25,2.88,2.88,0,0,1,1.05,1.59,8.07,8.07,0,0,1-.45,5.62c-1.79,4.68-3.59,9.05-5.54,13.58C601,429.44,596.69,439.65,592.5,450a154.48,154.48,0,0,0-8.09,23,13.43,13.43,0,0,0-.6,4.83,1.65,1.65,0,0,0,1.8,1.56c.9-.51,1.79-.69,2.54-1.19,3.15-1.53,6.14-3.36,9.14-4.72A90.58,90.58,0,0,1,613,467.76a32,32,0,0,1,11.82-.78,17,17,0,0,1,12,6.19,16.2,16.2,0,0,1,4.05,9.63,19.54,19.54,0,0,1-3.75,13.8,26.63,26.63,0,0,1-4.34,5,47.06,47.06,0,0,1-22.91,11.8c-2.09.51-4.19.39-4.49.56A30.37,30.37,0,0,1,600.73,513.88Zm7.64-6.24a40.94,40.94,0,0,0,19.91-13.4,29,29,0,0,0,3.89-6.61,14.4,14.4,0,0,0,1.35-6.58,8.87,8.87,0,0,0-6.14-8.79,17.35,17.35,0,0,0-7-1.22,55,55,0,0,0-11.67,2.4,101.67,101.67,0,0,0-24.11,11.94,1.51,1.51,0,0,0-.75.66,5,5,0,0,0-1.49,3.41,24.19,24.19,0,0,0,1.19,5.74,17.94,17.94,0,0,0,5.24,8.85,13.32,13.32,0,0,0,9.73,4.43,14.1,14.1,0,0,0,2.55.1A27.64,27.64,0,0,0,608.37,507.64Z"/><path class="cls-1" d="M757.06,414.84v1.36c0,.44,0,.88,0,1.32v2.64c0,.45-.07.92-.07,1.36s.07.88.07,1.32,0,.89,0,1.33,0,.88,0,1.32,0,.92,0,1.36.06.88.06,1.32,0,.88,0,1.32v1.32c0,.44,0,.89,0,1.36s0,.88,0,1.32a11.87,11.87,0,0,1-.17,1.6v.47a4.2,4.2,0,0,1-.38,1.15,2.44,2.44,0,0,1-.84.85,3.29,3.29,0,0,1-1.16.44,7.73,7.73,0,0,1-1.49.14,6.9,6.9,0,0,1-1.86-.31,3.7,3.7,0,0,1-1.06-.44,4.52,4.52,0,0,1-.95-.68,4.45,4.45,0,0,1-.77-.85c-.21-.33-.38-.67-.58-1l-.61-1c-.21-.31-.44-.61-.65-.95s-.3-.68-.5-1-.45-.61-.65-.95-.44-.57-.64-.91-.34-.72-.55-1.05-.44-.68-.67-1l-.61-1c-.21-.34-.41-.71-.61-1.05s-.45-.71-.65-1.05-.51-.68-.71-1-.44-.71-.68-1.05-.44-.68-.68-1a8.38,8.38,0,0,0-1-1.25c-.11-.07-.21,0-.31-.1a1.44,1.44,0,0,0-1.32-.44,1.36,1.36,0,0,0-.92,1c-.13.44-.24.85-.34,1.26s-.2.84-.23,1.25,0,.92,0,1.32,0,.82,0,1.23v1.25c0,.41,0,.81,0,1.26s0,.81,0,1.21v2.82c0,.54.07,1.05.07,1.59v.17a4.92,4.92,0,0,1-.24,1.53,2.32,2.32,0,0,1-.74,1.25,2.11,2.11,0,0,1-1.39.41,2.44,2.44,0,0,1-1.39-.37,2.51,2.51,0,0,1-.78-1.22,3.58,3.58,0,0,1-.11-.48v-.13a6.27,6.27,0,0,1-.23-1.16,10.45,10.45,0,0,1-.07-1.15c0-.44,0-.88,0-1.32v-1.32c0-.44,0-.85,0-1.29s.1-.88.1-1.32,0-.89,0-1.33c0-.61-.11-.61-.11-1.22s.11-.64.11-1.25v-1.09c0-.58,0-.58,0-1.12s0-.91,0-1.35v-1.36c0-.47,0-.91,0-1.39s.11-.92.11-1.36-.11-.91-.11-1.39.14-.81.17-1.22a7,7,0,0,1,.11-1.22,2.9,2.9,0,0,1,.84-1.39,3,3,0,0,1,1.36-.88,10.39,10.39,0,0,1,1.39-.14,6.45,6.45,0,0,1,1.39.07,10.41,10.41,0,0,1,1.43.24,4.84,4.84,0,0,1,1.11.61,3.71,3.71,0,0,1,.89.92c.27.33.54.64.78.95s.34.77.57,1.11.51.82.75,1.26.54.81.78,1.22l.74,1.25c.24.41.55.75.78,1.12s.41.78.65,1.16l.34.57c.23.37.47.75.71,1.16s.51.71.75,1.11.5.72.74,1.12l.71,1.12c.21.34.44.65.65.95s.44.64.68.92a2.62,2.62,0,0,0,1.28.74.93.93,0,0,0,1-.1,2.55,2.55,0,0,0,.89-1.66,2,2,0,0,1,0-.44c.07-.48.14-.92.17-1.32s0-.89,0-1.33,0-.95,0-1.42.07-1,.07-1.46-.1-.95-.1-1.42.1-1,.1-1.43,0-.95,0-1.42c0-.92,0-.92,0-1.8,0-.34.07-.71.1-1.08a4.8,4.8,0,0,1,.31-1.06,2.22,2.22,0,0,1,.61-.88,2.44,2.44,0,0,1,1-.44,2.28,2.28,0,0,1,1,.17,2.05,2.05,0,0,1,.92.51,2.16,2.16,0,0,1,.67,1.36l.11.57A10.68,10.68,0,0,1,757.06,414.84Z"/><path class="cls-1" d="M774.63,428.84a14.14,14.14,0,0,1-.24-1.45c-.1-.48-.27-.95-.34-1.46s0-1,0-1.46,0-1,.07-1.46.06-.94.13-1.45.17-.92.27-1.36.21-.95.34-1.39.34-.85.55-1.29a8.18,8.18,0,0,1,.64-1.25,9.1,9.1,0,0,1,.74-1.19c.28-.37.58-.78.89-1.12l1-.92c.34-.27.71-.5,1-.78s.68-.54,1.05-.78.81-.33,1.22-.5.75-.45,1.15-.62.85-.16,1.29-.3.85-.2,1.29-.27.85-.1,1.29-.14.85,0,1.32,0,.34-.1.71-.1c.54,0,1.09,0,1.66,0a8.68,8.68,0,0,1,1.63.24,9.33,9.33,0,0,1,1.22.34,5,5,0,0,1,1.12.51,5.72,5.72,0,0,1,.78.51,2.44,2.44,0,0,1,.71.94,1.9,1.9,0,0,1,0,1.16,2.48,2.48,0,0,1-.65,1,2,2,0,0,1-1,.54,3.72,3.72,0,0,1-1.22.14,11.4,11.4,0,0,1-1.22-.27c-.51-.17-1-.41-1.43-.51a13.34,13.34,0,0,0-1.49-.14,12.3,12.3,0,0,0-1.43-.1,9.23,9.23,0,0,0-1.39.27,5.74,5.74,0,0,0-1.35.41,6.7,6.7,0,0,0-1.26.68,10.21,10.21,0,0,0-1.08.91c-.34.34-.71.65-1,1a9.73,9.73,0,0,0-.88,1.15,10.22,10.22,0,0,0-.57,1.29,8.32,8.32,0,0,0-.48,1.29,12.57,12.57,0,0,0-.44,2.78c0,.51,0,.95.07,1.39a6.14,6.14,0,0,0,.13,1.39,8.48,8.48,0,0,0,.34,1.32c.17.44.34.82.51,1.19a8.77,8.77,0,0,0,.68,1.12,8.24,8.24,0,0,0,.75,1.05,10.18,10.18,0,0,0,.88.95,6.34,6.34,0,0,0,1,.78,6,6,0,0,0,1.12.68c.37.16.85.2,1.25.34a8.57,8.57,0,0,0,1.26.3,5.14,5.14,0,0,0,1.63.1,7.72,7.72,0,0,0,1.56-.37c.37-.1.67-.24,1-.34a9.06,9.06,0,0,0,.95-.41,4.87,4.87,0,0,1,1.25-.3,4.67,4.67,0,0,1,1.26-.1,2.13,2.13,0,0,1,1.93,2.71,2.43,2.43,0,0,1-.71,1,12.54,12.54,0,0,1-1.29.91,7.4,7.4,0,0,1-1.46.61,7.6,7.6,0,0,1-1.19.34c-.4.1-.81.14-1.22.2l-1.25.11c-.41,0-.81.07-1.22.07s-.92,0-1.36,0-.88-.18-1.32-.24a10.67,10.67,0,0,1-1.32-.34,9.81,9.81,0,0,1-1.29-.34c-.41-.17-.85-.31-1.26-.51a10.2,10.2,0,0,1-1.18-.68c-.38-.2-.75-.47-1.12-.71l-1.12-.78a9.71,9.71,0,0,1-.88-.81c-.27-.28-.44-.65-.72-1a9.48,9.48,0,0,1-.67-.95,9.65,9.65,0,0,1-.65-1,7.24,7.24,0,0,1-.44-1.12A12.75,12.75,0,0,1,774.63,428.84Z"/><rect class="cls-2" x="728.2" y="443.38" width="72.79" height="5.01"/><rect class="cls-2" x="728.2" y="399.85" width="72.79" height="5.01"/><path class="cls-1" d="M80.74,436.63a1.65,1.65,0,0,1-.9,1,2.49,2.49,0,0,1-1.34.27h-.13v0a5,5,0,0,1-1.23-.16A7,7,0,0,1,74.7,437a8.89,8.89,0,0,1-1.17-.56c-.36-.2-.73-.47-1.1-.7s-.66-.57-1-.87-.6-.64-.9-.94a10.2,10.2,0,0,1-.93-.93,10.8,10.8,0,0,1-.77-1.1c-.23-.37-.4-.8-.6-1.17s-.47-.77-.63-1.17-.2-.6-.31-.9l-.06,0a2.83,2.83,0,0,0-2.54-1.94h-.06a4.13,4.13,0,0,0-1.2.5,2.8,2.8,0,0,0-.94.9,3.48,3.48,0,0,0-.4,1.24,4.44,4.44,0,0,0-.13,1.16,9.24,9.24,0,0,0-.1,1.07c0,.07,0,.07,0,.1v.14c0,.23,0,.5,0,.76,0,.44,0,.9,0,1.37a10.25,10.25,0,0,1-.09,1.33v.1h0a.13.13,0,0,1,0,.11c0,.16-.11.33-.17.53a2.16,2.16,0,0,1-.84,1.1,2.09,2.09,0,0,1-1.33.4l0,.13a2.33,2.33,0,0,1-2.21-1.73,8.25,8.25,0,0,1-.2-1.3c0-.44-.13-.87-.13-1.34v-1.46c0-.44.13-.87.13-1.34s0-.83,0-1.23v-2.67c0-.6-.07-.6-.07-1.2v-1.27c0-.53,0-.57,0-1.13v-.1c0-.6,0-.6,0-1.2,0-.44,0-.87,0-1.31s0-.83,0-1.23-.1-.83-.1-1.27v-.1c0-.43,0-.83,0-1.23s0-.87,0-1.27v-.13c0-.37.1-.77.13-1.14s.14-.76.2-1.13a3.89,3.89,0,0,1,.4-1.1,2.22,2.22,0,0,1,.81-.8,3.11,3.11,0,0,1,1.1-.37c.1,0,.06-.13.16-.13a5,5,0,0,1,1.24-.17c.33,0,.33.07.63.07s.9-.07,1.34-.07h1.33c.43,0,.87.17,1.33.2a7.69,7.69,0,0,0,1.27,0c.44,0,.84,0,1.27,0h.07a9,9,0,0,1,1.26.16c.4,0,.8,0,1.24.07a10.78,10.78,0,0,1,1.23.33,7.83,7.83,0,0,1,1.5.6,7.49,7.49,0,0,1,1.3.91,7.35,7.35,0,0,1,1.07,1,6.43,6.43,0,0,1,.73,1.26,5,5,0,0,1,.47,1.37,13,13,0,0,1,.24,1.5,7.86,7.86,0,0,1,0,.84,7.12,7.12,0,0,1,0,.8,10.81,10.81,0,0,1-.3,1.46,7.68,7.68,0,0,1-.33,1.21,4.74,4.74,0,0,1-.61,1.1,6.12,6.12,0,0,1-.79,1,6,6,0,0,1-1,.8,8.11,8.11,0,0,1-1.1.57,6.81,6.81,0,0,1-1.07.47,2.18,2.18,0,0,0-.63,1.6,2.12,2.12,0,0,0,.29.63c.17.34.31.7.51,1s.36.66.6,1l.73.9a11.2,11.2,0,0,0,1.17,1,6,6,0,0,0,1.3.8,10.33,10.33,0,0,0,1.27.74c.43.2.9.36,1.36.53a2.77,2.77,0,0,1,.94.47,3.25,3.25,0,0,1,.83.7A1.56,1.56,0,0,1,80.74,436.63ZM62,418.75a3.63,3.63,0,0,0,0,.57,7,7,0,0,0,.27,1.16,2.6,2.6,0,0,0,.63,1.11,3.41,3.41,0,0,0,1.1.73,6.25,6.25,0,0,0,1.3.3,5.43,5.43,0,0,0,1.34,0,6.54,6.54,0,0,0,1.3-.2c.4-.1.83-.2,1.27-.33a4.24,4.24,0,0,0,.86-.53,8.29,8.29,0,0,0,.77-.71,3.81,3.81,0,0,0,.87-2.43c0-.13,0-.27,0-.4a3.92,3.92,0,0,0-.23-1.17,5.35,5.35,0,0,0-.8-.87,4,4,0,0,0-.9-.73,5.33,5.33,0,0,0-1.1-.53,5.55,5.55,0,0,0-1.2-.3,7.46,7.46,0,0,0-1.27,0c-.1,0-.23,0-.37,0s-.5,0-.73.07a4,4,0,0,0-1.33.43,2.85,2.85,0,0,0-1,1,3.41,3.41,0,0,0-.63,1.23,6.85,6.85,0,0,0-.1,1.17Z"/><path class="cls-1" d="M117.8,435.83s-.07,0-.07.07a2.06,2.06,0,0,1-.5,1.46,2,2,0,0,1-1.4.67s-.1,0-.17,0a2.5,2.5,0,0,1-1-.14,2.34,2.34,0,0,1-.76-.6,5.59,5.59,0,0,1-.9-.76,3.36,3.36,0,0,1-.6-1,12.16,12.16,0,0,0-.67-1.21v-.06a6.15,6.15,0,0,0-.9-1.1,4.35,4.35,0,0,0-1.27-.6,4.67,4.67,0,0,0-1.37-.34l-1.33,0c-.44,0-.87-.13-1.34-.13s-.86.1-1.3.1-.9-.1-1.33-.07-.9.07-1.34.07a4,4,0,0,0-1.13.3,3.46,3.46,0,0,0-1.07.46,4,4,0,0,0-.86.84,4.6,4.6,0,0,0-.77.9c-.2.37-.27.73-.44,1s-.4.67-.6,1a2.86,2.86,0,0,1-.76.8,3.08,3.08,0,0,1-1,.4,2.74,2.74,0,0,1-1.14.16,2.2,2.2,0,0,1-1-.5,1.76,1.76,0,0,1-.47-.93,1.94,1.94,0,0,1,0-1.07c.1-.4.17-.8.3-1.17s.3-.73.44-1.1.43-.83.63-1.3.3-.9.5-1.33.4-.77.57-1.17l.53-1.13c.17-.4.27-.84.44-1.24s.33-.77.46-1.16.37-.71.5-1,.27-.77.4-1.1.4-.7.57-1a8.88,8.88,0,0,1,.44-.94c.13-.33.23-.63.4-1s.29-.7.46-1.06.34-.7.47-1,.3-.73.47-1.1.23-.66.36-1a8.63,8.63,0,0,0,.44-1l.53-1.1c.17-.36.3-.73.47-1.1a5,5,0,0,1,1-1.53,3.28,3.28,0,0,1,1.1-.74,3.38,3.38,0,0,1,1.27-.2,3.1,3.1,0,0,1,1.23.37,3.67,3.67,0,0,1,1.07.74,6.44,6.44,0,0,1,.73,1,7.85,7.85,0,0,1,.5,1.13l.5,1c.14.37.37.67.5,1s.3.7.47,1,.37.77.53,1.14.24.8.4,1.2.37.73.54,1.13.3.77.47,1.17.36.77.5,1.13.3.8.46,1.17.3.8.5,1.2.37.77.57,1.17l.5,1.23c.2.44.43.8.6,1.24s.27.86.43,1.27.3.69.47,1.06.27.7.43,1.07.51.77.67,1.17.3.7.44,1.06A6.58,6.58,0,0,1,117.8,435.83Zm-9.88-11.21a8.3,8.3,0,0,0-.29-1.07,8,8,0,0,0-.71-1.4,9.42,9.42,0,0,0-.83-1.3,1.59,1.59,0,0,0-1.23-.63,1.51,1.51,0,0,0-1.34.43,5,5,0,0,0-.7,1c-.23.37-.43.73-.63,1.1a12,12,0,0,0-.47,1.34,5.67,5.67,0,0,0-.23,1.4,3,3,0,0,0,.4,1.57,2.5,2.5,0,0,0,1.3.9,3.63,3.63,0,0,0,1.57.3s0-.1,0-.1v.06a3.61,3.61,0,0,0,1.77-.36,2.23,2.23,0,0,0,1.1-.8,2.28,2.28,0,0,0,.26-1.31A6.09,6.09,0,0,0,107.92,424.62Z"/><path class="cls-1" d="M136.19,438a2.45,2.45,0,0,1-1.07-.67,2.63,2.63,0,0,1-.7-1.07,3.85,3.85,0,0,1-.13-1.26c0-.4,0-.77,0-1.14,0-.67,0-.67,0-1.33s-.06-.67-.06-1.34.06-.7.06-1.37v-1.33c0-.67,0-.67,0-1.33s0-.7,0-1.37,0-.67,0-1.34v-1.33c0-.67.1-.67.1-1.33v-2.47c0-.4,0-.8,0-1.2s-.07-.84-.07-1.24,0-.8,0-1.2,0-.83,0-1.23.1-.67.13-1.07a4,4,0,0,1,.24-1,1.9,1.9,0,0,1,.7-.76,1.74,1.74,0,0,1,.9-.47,2.11,2.11,0,0,1,1,0,2.18,2.18,0,0,1,.94.54,2.67,2.67,0,0,1,.73,1.47l.1,1.33a8.51,8.51,0,0,1,.1,1.33v1.24c0,.43,0,.83,0,1.23s-.1.84-.1,1.24,0,.83,0,1.23,0,.8,0,1.24v1.23c0,.4,0,.8,0,1.23s0,.8,0,1.2c0,.6,0,.6,0,1.21v1.2c0,.6,0,.6,0,1.2,0,.33,0,.66,0,1a5.74,5.74,0,0,0,.1,1,3.38,3.38,0,0,0,.5,1.1,3.49,3.49,0,0,0,.91.8,3.16,3.16,0,0,0,1.1.43,4.7,4.7,0,0,0,1.4.27c.53,0,.53-.07,1-.07.33,0,.67.1,1,.1s.67-.06,1-.06a4.12,4.12,0,0,1,1.17.13c.4,0,.77.07,1.13.13a3.3,3.3,0,0,1,.9.34,1.89,1.89,0,0,1,.91,1.3,1.92,1.92,0,0,1-.41,1.57,2.31,2.31,0,0,1-1.43.76,8.21,8.21,0,0,1-1.5.17c-.4,0-.83.07-1.27.07s-.87-.1-1.3-.1-.87.1-1.27.1h-1.3c-.6,0-1.2-.07-1.83-.07-.9,0-.9.07-1.8.07-.24,0-.47-.1-.7-.1A5,5,0,0,1,136.19,438Z"/><rect class="cls-2" x="55.59" y="443.38" width="94.68" height="5.01"/><rect class="cls-2" x="55.59" y="399.85" width="94.68" height="5.01"/></g></g></svg>