<svg xmlns="http://www.w3.org/2000/svg" viewBox="0 0 68.72 44.57"><defs><style>.cls-1{fill:#576b32;}</style></defs><title>dogwood-bullet</title><g id="Layer_2" data-name="Layer 2"><g id="Layer_1-2" data-name="Layer 1"><path class="cls-1" d="M68.68,22.62l0-.13a.08.08,0,0,0,0,0,.26.26,0,0,0,0-.09.48.48,0,0,0,0-.15c0-.05,0-.11,0-.18a1,1,0,0,0-.11-.17,1.4,1.4,0,0,0-.1-.16.74.74,0,0,0-.17-.12.6.6,0,0,0-.15-.09.78.78,0,0,0-.23-.07.49.49,0,0,0-.14,0c-.18,0-18.57-1.34-30.33-8.85A73.78,73.78,0,0,1,29.69,6.6C25.54,3.08,21.92,0,18,0a8,8,0,0,0-.82.05c-2.85.3-3.76,1.82-4,2.68A4,4,0,0,0,14.4,6.84a3.91,3.91,0,0,0,4.34.68c1.37-.6,2.29-.54,2.54-.25s.36,2-1.89,5.39C15.49,18.48,1,21.18.85,21.21l-.09,0a.48.48,0,0,0-.18.06l-.16.1a.8.8,0,0,0-.13.13.57.57,0,0,0-.12.15l-.09.16A.72.72,0,0,0,0,22a.11.11,0,0,1,0,.06c0,.06,0,.1,0,.13s0,.07,0,.1l0,.1a.65.65,0,0,0,0,.19.51.51,0,0,0,.09.16.42.42,0,0,0,.12.15.51.51,0,0,0,.13.12.4.4,0,0,0,.15.1l.19.08.09,0c.14,0,14.62,2.81,18.49,8.64,2.23,3.37,2.2,5,1.86,5.4S20,37.66,18.66,37a4,4,0,0,0-4.35.66A4,4,0,0,0,13,41.81c.26.87,1.16,2.38,4,2.71,4.24.48,8.09-2.75,12.56-6.49a72.16,72.16,0,0,1,7.74-5.89c11.79-7.43,30.2-8.67,30.39-8.68a.66.66,0,0,0,.15,0l.18,0,.2-.13.12-.09a.79.79,0,0,0,.14-.18.46.46,0,0,0,.09-.15A.83.83,0,0,0,68.68,22.62Zm-9.25-.22c-6.61,1.13-16,3.41-23.19,8a74.46,74.46,0,0,0-8,6.06l-.78.66c-1.82.49-3.52-1.75-4-2.45-1.89-2.76-2.55-6.44-1.41-7.87,2-2.45,9.74-3.29,12.56-3.4a.85.85,0,0,0,.17,0,.43.43,0,0,0,.2-.06.3.3,0,0,0,.17-.1.76.76,0,0,0,.16-.11s.07-.11.12-.16.07-.1.1-.16a1.43,1.43,0,0,0,0-.22.39.39,0,0,0,0-.17v0a.48.48,0,0,0,0-.18.79.79,0,0,0,0-.2l-.1-.17a1.53,1.53,0,0,0-.11-.16l-.16-.11a.82.82,0,0,0-.17-.11.65.65,0,0,0-.2-.05l-.17,0c-2.82-.12-10.6-1-12.54-3.47-1.14-1.44-.46-5.1,1.45-7.86.48-.7,2.19-2.92,4-2.42.25.23.52.44.78.66a72.17,72.17,0,0,0,7.94,6.1C43.49,18.89,52.83,21.23,59.43,22.4Z"/></g></g></svg>