<svg xmlns="http://www.w3.org/2000/svg" viewBox="0 0 874.15 349.78"><defs><style>.cls-1{fill:#576b32;}</style></defs><title>dogwood-moving</title><g id="Layer_2" data-name="Layer 2"><g id="Layer_1-2" data-name="Layer 1"><path class="cls-1" d="M163.06,343.25c0-1.38,1.18-2.22,2.65-2.22,3.53,0,6.18-1.66,6.47-5l.3-100.13c-.3-3.32-2.95-5-6.77-5a2.26,2.26,0,0,1-2.36-2.22,2.32,2.32,0,0,1,2.36-2.49h40a2.25,2.25,0,0,1,2.35,2.22,2.32,2.32,0,0,1-2.35,2.49c-3.53,0-4.42,2.5-3.53,5.27l17.36,55.75,16.19-53.53c.88-3,2.36-7.49-1.77-7.49a2.37,2.37,0,1,1,0-4.71h35.62a2.25,2.25,0,0,1,2.35,2.22,2.32,2.32,0,0,1-2.35,2.49c-3.53,0-6.77,2.77-6.77,6.1v97.63c0,4.16,2.06,6.38,6.77,6.38a2.11,2.11,0,0,1,2.35,2.22,2.32,2.32,0,0,1-2.35,2.5H230.17a2.51,2.51,0,0,1-2.36-2.5,2.27,2.27,0,0,1,2.36-2.22c5,0,6.77-2.49,6.77-6.65V272l-17.66,58.8c-1.77,6.38-9.72,6.38-12.07.56l-23.55-64.91L183.37,336c.29,3.33,2.94,5,6.77,5a2.11,2.11,0,0,1,2.35,2.22,2.32,2.32,0,0,1-2.35,2.5H165.71A2.57,2.57,0,0,1,163.06,343.25Zm52.39-39.66-20.9-66.29H191.9l22.08,71Zm38.26,30v1.94h3V237.3h-3Z"/><path class="cls-1" d="M360,332.71c-12.66,21.36-55,21.36-67.41,0-13.24-22.19-13.24-71.28,0-93.47,12.37-21.35,54.75-21.35,67.41,0C372.92,261.43,372.92,310.52,360,332.71Zm-53.87-5.55c-4.71-13.59-5-64.34-.59-81.26a12.23,12.23,0,0,0-1.47,1.94c-6.77,10.82-7.36,65.18,0,76.55C304.93,325.5,305.51,326.33,306.1,327.16Zm31.79-87.36c-7.06-11.93-16.19-11.93-23.55,0-7.35,12.48-7.35,79.88,0,92.36,7.36,11.92,16.49,11.92,23.55,0C345.25,319.68,345.25,252.28,337.89,239.8Zm15.89,1.38a4.78,4.78,0,0,0-1.17-1.38c10.3,25.24,9.71,71.28-1.47,94.58a40.31,40.31,0,0,0,2.64-3.61C366.74,309.41,366.74,262.54,353.78,241.18Z"/><path class="cls-1" d="M463.86,228.7c0,1.39-1.17,2.22-2.65,2.22-5.88,0-6.18,3.05-7.06,6.94-8.24,34.11-15.89,68.23-25.31,101.79-2.95,10.26-18,9.15-20.31,0-8.83-33.84-17.37-68-25.9-101.79-1.18-3.89-2.06-6.94-7.36-6.94a2.26,2.26,0,0,1-2.36-2.22,2.51,2.51,0,0,1,2.36-2.49h39.44a2.32,2.32,0,0,1,2.35,2.49,2.1,2.1,0,0,1-2.35,2.22c-4.71,0-7.36,2.5-6.48,6.66,5.89,23.3,11.78,46.59,17.66,69.62,5.6-23.3,11.48-46.6,17.08-69.9.88-4.16-2.36-6.38-6.48-6.38-1.47,0-2.65-.83-2.65-2.22a2.57,2.57,0,0,1,2.65-2.49h24.72A2.56,2.56,0,0,1,463.86,228.7ZM420.3,316.07l-19.72-79h-2.94L419.42,325Z"/><path class="cls-1" d="M521.55,228.7a2.54,2.54,0,0,1-2.65,2.22c-3.24,0-6.48,2.77-6.48,6.1v97.63c0,4.16,2.07,6.38,6.48,6.38a2.38,2.38,0,1,1,0,4.72H479.75a2.38,2.38,0,1,1,0-4.72c5,0,6.77-2.49,6.77-6.65V237.3c0-4.16-2.35-6.38-6.77-6.38a2.37,2.37,0,1,1,0-4.71H518.9A2.57,2.57,0,0,1,521.55,228.7ZM503,237v97.91l2.94.28V237Z"/><path class="cls-1" d="M563.34,341a2.38,2.38,0,1,1,0,4.72H538.91a2.38,2.38,0,1,1,0-4.72c3.53,0,6.18-1.66,6.47-5l.3-99.85c-.3-3.6-2.95-5.27-6.77-5.27a2.26,2.26,0,0,1-2.36-2.22,2.32,2.32,0,0,1,2.36-2.49h38a2.37,2.37,0,1,1,0,4.71c-3.83,0-3.24,2.5-2.36,5.83l21.78,72.39V236.19c-.29-3.6-2.94-5.27-6.77-5.27a2.1,2.1,0,0,1-2.35-2.22,2.32,2.32,0,0,1,2.35-2.49H614a2.56,2.56,0,0,1,2.65,2.49c0,1.39-1.17,2.22-2.65,2.22-3.53,0-6.18,1.67-6.47,4.72l-.3,100.4c.3,3.33,2.95,5,6.77,5a2.54,2.54,0,0,1,2.65,2.22,2.56,2.56,0,0,1-2.65,2.5H575.7a2.5,2.5,0,0,1-2.35-2.5A2.46,2.46,0,0,1,575.7,341c3.53,0,3.53-1.94,2.94-4.71l-21.78-72.67-.29,72.11C556.86,339.37,559.51,341,563.34,341Zm28.55-7.49.59,1.94h2.94l-28-98.18h-2.94Z"/><path class="cls-1" d="M711.09,296.1a2.57,2.57,0,0,1-2.65,2.5c-3.53,0-6.77,2.49-6.77,5.82V346c0,7.22-18.83,3.89-18.83-8.59-4.71,13.31-38.27,12.76-47.39-3.05-11.19-18.59-11.48-53.26-8-74.89,3-16.92,10-32.45,30.91-35,11.18-1.11,23,1.67,30,8.32,3.24,1.11,3.24-2.21,3.53-5.82a2.57,2.57,0,0,1,2.65-2.5A2.5,2.5,0,0,1,697,227v26.62c-.88,4.16-7.94,4.44-8.53-.83v-1.11c-1.18-12.75-13.54-23.57-24.14-17.47-7.35,4.16-10,14.42-11.18,24.13-2.06,16.09-2.36,61,4.41,72.11,8.83,14.42,20.31,6.38,24.43-7.21,1.77-5.55,4.42-23.85-5.29-23.85,0,.83.29,1.38.29,2.22,0,4.71-3.83,8.32-8.83,8.32a8.36,8.36,0,0,1-8.54-8.32c0-6.1,5.3-8,10.6-8h38.26A2.57,2.57,0,0,1,711.09,296.1Zm-64.46-41.6a102.69,102.69,0,0,1,2.65-14.15,50.58,50.58,0,0,0-5.88,18c-1.77,16.09-1.77,61,5,72.11.29.28.59.84.88,1.11C644.28,314.13,644.87,270.86,646.63,254.5ZM695.79,305l-2.95.27V333l2.95-.83Z"/><path class="cls-1" d="M101.13,33.32c.69,9.46-.37,191.65-1.17,201.73C98,254.27,85.62,272,70.43,276,50,281.12,23.48,288.54,3.3,294.75c-1.83.56-3.3-1-3.3-3.45,0-2,1.47-4.4,3.3-4.95,6.25-1.85,8.46-6.88,8.47-14.22Q11.88,146.6,12,21.05V19.58C12,12.24,9,8.35,3.38,8.39,1.5,8.41,0,6.44,0,4.46,0,2,1.5,0,3.38,0h68.3C86.69.08,99.36,15,101.13,33.32ZM34.47,22.5q-.28,119.19-.58,238.39c0,1.76,0,3.52,0,5.27l3.69-1,.65-242.78ZM44.22,264c-.06,17.09,23.24,10.22,25.27-25.19.41-8.42,1.23-193,.89-200.82C68.67,2,45,3.7,45,18.48ZM87.7,233.5a59.69,59.69,0,0,1-6.42,21.93,50.52,50.52,0,0,0,10.16-26.78c.8-9.24,1.73-178.3,1-186.91-.69-9.5-4.4-18-10-23.89,3.35,5.44,5.56,12.67,6.26,20.38C89.44,46.88,88.49,223.77,87.7,233.5Z"/><path class="cls-1" d="M212.11,178.82c-16.45,33.21-70.42,42.74-85.85,11.39-16.57-32.49-16.12-112.74,1-148.46,16-34.6,70-33.82,85.91-2.5C229.43,72.06,228.91,143.82,212.11,178.82Zm-68.59.12c-5.83-20.4-5.66-100.58.15-127.3a19.52,19.52,0,0,0-1.89,3.13C133,72,131.71,158.46,140.94,175,142.05,176.54,142.79,177.74,143.52,178.94ZM185,40.82c-8.87-17.88-20.51-17.94-30,.9-9.52,19.58-10.26,125.58-1,143.55,9.23,17.22,20.85,15.28,30-4C193.47,161.07,194.24,59.64,185,40.82Zm20.25,1.54a6.87,6.87,0,0,0-1.49-2c12.85,37.62,11.59,105.53-3,142.29,1.14-1.8,2.28-3.6,3.42-5.81C221,142.85,221.53,74,205.26,42.36Z"/><path class="cls-1" d="M350.65,116.79a3.6,3.6,0,0,1-3.41,3.61c-4.53.14-8.69,3.8-8.71,8.49l-.27,58.64c-.05,10.11-24.23,7-24.13-10.76-6.15,19-49.21,22.15-60.71.31-14.12-25.76-14.11-77-9.37-108.85,3.94-25,13.11-47.84,39.79-51.57,14.27-1.7,29.27,2.2,38.23,11.54,4.13,1.53,4.15-3.18,4.55-8.28a3.49,3.49,0,0,1,3.4-3.55,3.36,3.36,0,0,1,3,3.51q-.09,18.21-.17,36.41c0,.4,0,.79,0,1.18-1.16,5.89-10.19,6.47-10.9-1v-.78c0-.4,0-.4,0-.79-1.42-18-17.11-33.27-30.68-24.4-9.43,6.08-12.91,21-14.5,35-2.78,23.26-3.6,88.3,5,103.58,11.19,19.85,26,7.19,31.38-12.35,2.31-8,5.84-34.14-6.6-33.58,0,1.18.37,2,.36,3.14a12.25,12.25,0,0,1-11.38,12.46c-6,.35-10.9-4.53-10.85-11.32.05-8.77,6.85-11.9,13.63-12.21,16.2-.75,32.78-1.38,49-1.86A3.31,3.31,0,0,1,350.65,116.79ZM268.53,60.15a165.8,165.8,0,0,1,3.52-20.55c-3.81,7.29-6.51,17-7.7,26.31-2.41,23.4-2.87,88.79,5.69,104.1.38.37.75,1.14,1.13,1.52C264.92,146.79,266.11,83.89,268.53,60.15ZM331,130l-3.78.54v2.75L327,169.74l3.78-1.38Q330.88,149.16,331,130Z"/><path class="cls-1" d="M526.39,22.14c0,1.94-1.12,3.5-3,3.48-7.52,0-7.88,4.23-9.36,9.28-8.48,39.27-26.37,120.55-32,141.63-3.37,13.8-22.7,11.9-26.11-.43Q446.6,136.5,437.36,97c-7.54,33.13-15.13,66.7-18.55,79.08-3.79,13.87-22.73,12.68-26.11.42Q376.2,106,359.93,34.9c-1.11-5.44-2.22-9.32-9-9.28a3.38,3.38,0,0,1-3.36-3.48A3.46,3.46,0,0,1,351,18.61c16.9-.08,33.43-.14,49.95-.17a3.48,3.48,0,0,1,0,7c-6,0-9.4,3.51-7.91,9.3Q404,82.95,415.08,131q12-51.78,23.78-103.37l.75-3.46c.75-3.86,4.51-6.17,8.64-5.4,4.51,1.16,4.89,4.64,6,8.49q11.88,51.87,23.88,104Q489,82.76,499.75,34c1.49-5.81-3-8.55-7.91-8.56a3.45,3.45,0,0,1-3.39-3.5,3.39,3.39,0,0,1,3.37-3.47c10.52,0,20.66.07,31.55.12C525.25,18.62,526.38,20.18,526.39,22.14ZM408.26,143.43q-12.58-54.83-25-109.85l-3.76,0q13.74,61.31,27.64,122.19Q407.68,149.61,408.26,143.43Zm63.88,9.35Q460.34,102,448.65,51.56h-3.77q12.83,56.67,25.77,113.56Q471.4,158.95,472.14,152.78Z"/><path class="cls-1" d="M626.17,175.15c-15.94,29.5-70.37,24.34-86.4-6.19-17.15-32.15-17.37-100.71-.61-131.88,15.65-29.85,69.66-30.27,86,1.36C642,71.19,642.51,144.35,626.17,175.15ZM557.11,162c-6.15-19.64-6.88-91.39-1.37-115.32a17.16,17.16,0,0,0-1.86,2.73c-8.56,15.23-9,91.87.57,108.51C555.59,159.59,556.35,160.82,557.11,162ZM597,38.71c-9.13-17.36-20.76-17.33-30.06-.48-9.29,17.69-8.8,113.13.75,131.54,9.53,17.58,21.25,18.63,30.18,2.15C607.21,154.74,606.54,56.82,597,38.71Zm20.3,2.4a7.42,7.42,0,0,0-1.52-2c13.4,37,13.16,105-.92,137.49a48.82,48.82,0,0,0,3.35-5C634.6,142.05,634.07,72.53,617.33,41.11Z"/><path class="cls-1" d="M752.19,190.88c-15.8,31.37-69.76,21.7-85.83-11.58-17.17-35.17-17.7-107-1.06-140C680.82,8,734.87,7.16,751.22,41.9,767.94,77.74,768.38,158.24,752.19,190.88Zm-68.61-17.95c-6.16-21.32-7.12-97.63-1.68-123.08A16.92,16.92,0,0,0,680,52.73c-8.51,16.13-8.64,97.42.88,115.71C682.06,170.24,682.82,171.59,683.58,172.93ZM723.1,41.84C714,23,702.33,23,693.09,40.93c-9.24,18.87-8.47,120.56,1.06,140.86,9.51,19.37,21.13,21.35,30,4C733.35,167.82,732.61,61.49,723.1,41.84Zm20.26,2.86a8.1,8.1,0,0,0-1.51-2.24c13.39,40.34,13.09,114.82-.86,149.32a52.09,52.09,0,0,0,3.33-5.19C760.53,155.38,760.09,79,743.36,44.7Z"/><path class="cls-1" d="M873.59,36.64c.75,10.4.74,211.15,0,221.82-1.84,20.4-13.94,32.93-29,28.53-20.26-5.82-46.92-12.75-67.38-17.51-1.86-.44-3.36-2.59-3.37-4.84a2.74,2.74,0,0,1,3.32-2.84c6.33,1.46,8.53-2.1,8.49-8.93Q785,136.21,784.38,19.56c0-.46,0-.91,0-1.37,0-6.83-3-10.48-8.68-10.52a3.66,3.66,0,0,1-3.4-3.62c0-2.25,1.48-4,3.36-4h68.29C859-.09,871.73,16.17,873.59,36.64Zm-66.7-14.83,1,231.12c0,1.7,0,3.41,0,5.11l3.71.89q-.5-118.52-1-237ZM818.27,261c.08,16.73,23.33,22.85,25.1-13.25.35-8.54-.07-200.24-.46-208.4C841,1.74,817.31,3.84,817.37,18.28Zm43.18-10.18c-.73,8.13-2.94,15.36-6.24,20.28,5.51-4.8,9.19-13.13,9.92-23.75.73-9.61.62-192.89-.14-202.22-.75-10.35-4.51-19.8-10.14-26.21,3.39,5.89,5.64,13.78,6.4,22.13C862,50.37,862.17,240.79,861.45,250.85Z"/></g></g></svg>